<svg id="ghostwritten" xmlns="http://www.w3.org/2000/svg" xmlns:xlink="http://www.w3.org/1999/xlink" width="300" height="500" viewBox="200 0 600 1000">
  <defs>
    <style>
      .cls-1, .cls-2, .cls-3, .cls-4, .cls-5, .cls-6 {
        fill-rule: evenodd;
      }

      .cls-1 {
        fill: url(#linear-gradient);
      }

      .cls-2 {
        fill: url(#linear-gradient-2);
      }

      .cls-3 {
        fill: url(#linear-gradient-3);
      }

      .cls-4 {
        fill: url(#linear-gradient-4);
      }

      .cls-5 {
        fill: url(#linear-gradient-5);
      }

      .cls-6 {
        fill: url(#linear-gradient-6);
      }
    </style>
    <linearGradient id="linear-gradient" x1="494.765" y1="762" x2="494.765" y2="7.938" gradientUnits="userSpaceOnUse">
      <stop offset="0"/>
      <stop offset="1" stop-color="#333"/>
    </linearGradient>
    <linearGradient id="linear-gradient-2" x1="365.844" y1="342.875" x2="365.844" y2="8" gradientUnits="userSpaceOnUse">
      <stop offset="0" stop-color="#a5a5a5"/>
      <stop offset="1" stop-color="#bcbcbc"/>
    </linearGradient>
    <linearGradient id="linear-gradient-3" x1="513.383" y1="510" x2="366.617" y2="284" gradientUnits="userSpaceOnUse">
      <stop offset="0" stop-color="#6d6d6c"/>
      <stop offset="1" stop-color="#959595"/>
    </linearGradient>
    <linearGradient id="linear-gradient-4" x1="589.156" y1="682.781" x2="423.375" y2="437" gradientUnits="userSpaceOnUse">
      <stop offset="0" stop-color="#5a5a5a"/>
      <stop offset="1" stop-color="#707070"/>
    </linearGradient>
    <linearGradient id="linear-gradient-5" x1="560.453" y1="789" x2="560.453" y2="627" gradientUnits="userSpaceOnUse">
      <stop offset="0" stop-color="#323232"/>
      <stop offset="1" stop-color="#545454"/>
    </linearGradient>
    <linearGradient id="linear-gradient-6" x1="1000" y1="211.325" x2="0" y2="788.675" gradientUnits="userSpaceOnUse">
      <stop offset="0" stop-color="#4858fc"/>
      <stop offset="1" stop-color="#090d33"/>
    </linearGradient>
  </defs>
  <path class="cls-1" d="M650.758,753.394c17.309-5.936,42.132-6.1,77.242,8.606,0,0-26.025-20.908-53-28,0,0,29.926-10.616,37-23,0,0-27.055,12.235-45,7,0,0-3.35-32.069,41-96,0,0-28.372,17.818-42,36,0,0-50.911-557.327-400.888-650.074C225.133,57.521,530.639,500.55,581,661c0,0,36.163,43.257-9,49C572,710,594.051,718.5,650.758,753.394Z"/>
  <path id="Shape_2_copy_5" data-name="Shape 2 copy 5" class="cls-2" d="M485,340C423.818,216.762,350.562,91.877,265,8c-1.074-1.436-80.525,106.1,100,292a98.437,98.437,0,0,1-47-16,178.294,178.294,0,0,0,11.265,39.375C422.834,350.171,454.7,342.305,485,340Z"/>
  <path id="Shape_2_copy_4" data-name="Shape 2 copy 4" class="cls-3" d="M562,510c-25.364-61.531-56.5-130.8-91-198-18.762-1.511-87.144-8.861-106-12a98.437,98.437,0,0,1-47-16s11.472,85.711,80,114c0,0-27.691-3.608-45-18,0,0,12.188,39.417,65,67,0,0-33.335-5.228-35-10,0,0,2.543,10.474,8.3,26.927C499.927,494.717,550.144,509.963,562,510Z"/>
  <path id="Shape_2_copy_3" data-name="Shape 2 copy 3" class="cls-4" d="M629.542,682.785C611.678,630.592,581.574,554.127,545,469c-62.586-7.753-119.329-18.739-127-22,0,0-33.335-5.228-35-10,0,0,47.4,195.278,196,224a76.24,76.24,0,0,1-15.31,2.946C584.962,669.822,600.619,672.244,629.542,682.785Z"/>
  <path id="Shape_2_copy_2" data-name="Shape 2 copy 2" class="cls-5" d="M614,789a59.963,59.963,0,0,1,37.9-35.986c0.313-.424-9.775-34.528-28.8-88.834-9.878.54-40.834-2.672-44.1-3.18,0,0-57.391,19.573-110-34,0,0,21.9,59.424,83,78,0,0-27.412,9.138-49-16,0,0,23.153,66.173,130,61C633,750,620.1,759.922,614,789Z"/>
  <path class="cls-6" d="M304,51S497.2,226.24,739,984c0,0-20.235,2.062-26-14S501.083,283.82,304,51Z"/>
</svg>
